<svg xmlns="http://www.w3.org/2000/svg" xmlns:xlink="http://www.w3.org/1999/xlink" width="89" zoomAndPan="magnify" viewBox="0 0 66.75 66.75" height="89" preserveAspectRatio="xMidYMid meet" version="1.2"><defs><clipPath id="0a89a363e0"><path d="M 30 0 L 65.753906 0 L 65.753906 36 L 30 36 Z M 30 0 "/></clipPath><clipPath id="a94b38d5d7"><path d="M 0 9 L 56 9 L 56 65.753906 L 0 65.753906 Z M 0 9 "/></clipPath></defs><g id="7d3a77afcf"><g clip-rule="nonzero" clip-path="url(#0a89a363e0)"><path style=" stroke:none;fill-rule:nonzero;fill:#8740f1;fill-opacity:1;" d="M 55.175781 10.578125 C 49.15625 4.554688 40.828125 0.988281 30.441406 -0.0234375 L 30.1875 2.5625 C 39.960938 3.519531 47.75 6.835938 53.332031 12.421875 C 58.917969 18.003906 62.234375 25.792969 63.191406 35.566406 L 65.777344 35.3125 C 64.765625 24.925781 61.199219 16.597656 55.175781 10.578125 "/></g><path style=" stroke:none;fill-rule:nonzero;fill:#8740f1;fill-opacity:1;" d="M 44.667969 35.714844 L 47.242188 35.347656 C 46.507812 30.199219 44.792969 26.25 42.148438 23.605469 C 39.503906 20.960938 35.554688 19.246094 30.40625 18.511719 L 30.039062 21.085938 C 34.613281 21.738281 38.066406 23.207031 40.308594 25.445312 C 42.546875 27.6875 44.015625 31.140625 44.667969 35.714844 "/><path style=" stroke:none;fill-rule:nonzero;fill:#8740f1;fill-opacity:1;" d="M 30.417969 9.21875 L 30.121094 11.804688 C 37.296875 12.628906 42.917969 15.027344 46.824219 18.929688 C 50.726562 22.835938 53.125 28.457031 53.949219 35.632812 L 56.535156 35.335938 C 55.644531 27.5625 52.992188 21.421875 48.664062 17.089844 C 44.332031 12.761719 38.191406 10.109375 30.417969 9.21875 "/><g clip-rule="nonzero" clip-path="url(#a94b38d5d7)"><path style=" stroke:none;fill-rule:nonzero;fill:#8740f1;fill-opacity:1;" d="M 48.300781 44.703125 C 46.261719 42.660156 42.945312 42.660156 40.90625 44.703125 L 36.980469 48.628906 C 36.324219 49.28125 35.324219 49.414062 34.507812 48.96875 C 30.910156 47.011719 27.484375 44.472656 24.382812 41.371094 C 21.28125 38.269531 18.742188 34.84375 16.785156 31.246094 C 16.339844 30.429688 16.472656 29.429688 17.125 28.773438 L 21.050781 24.847656 C 23.09375 22.808594 23.09375 19.492188 21.050781 17.453125 L 14.917969 11.316406 C 12.875 9.273438 9.5625 9.273438 7.519531 11.316406 L 3.058594 15.777344 C 0.917969 17.914062 0.03125 21.011719 0.730469 23.957031 C 2.957031 33.382812 7.929688 42.566406 15.558594 50.195312 C 23.1875 57.824219 32.371094 62.792969 41.796875 65.023438 C 44.742188 65.722656 47.839844 64.835938 49.976562 62.691406 L 54.4375 58.234375 C 56.480469 56.191406 56.480469 52.878906 54.4375 50.835938 L 48.300781 44.703125 "/></g></g></svg>