<svg xmlns="http://www.w3.org/2000/svg" xmlns:xlink="http://www.w3.org/1999/xlink" width="96" zoomAndPan="magnify" viewBox="0 0 72 72" height="96" preserveAspectRatio="xMidYMid meet" version="1.2"><g id="ab119eec46"><path style=" stroke:none;fill-rule:nonzero;fill:#8740f1;fill-opacity:1;" d="M 64.359375 14.035156 C 59.582031 7.804688 52.773438 3.253906 45.191406 1.21875 C 42.183594 0.414062 39.066406 0.00390625 35.925781 0.00390625 C 31.160156 0.00390625 26.539062 0.921875 22.179688 2.722656 C 14.925781 5.726562 8.769531 11.128906 4.84375 17.925781 C 1.675781 23.367188 0 29.574219 0 35.871094 C 0 42.167969 1.675781 48.371094 4.867188 53.847656 C 4.90625 53.898438 4.945312 53.953125 4.992188 54.027344 L 5.023438 54.078125 C 9.242188 61.273438 15.886719 66.800781 23.734375 69.636719 C 27.65625 71.050781 31.777344 71.761719 35.898438 71.761719 C 40.019531 71.761719 44.140625 71.050781 48.0625 69.636719 C 55.855469 66.820312 62.472656 61.339844 66.710938 54.183594 L 66.742188 54.113281 C 66.800781 54.003906 66.847656 53.929688 66.902344 53.855469 L 66.945312 53.792969 C 70.105469 48.378906 71.769531 42.179688 71.765625 35.871094 L 71.765625 35.542969 C 71.695312 27.808594 69.066406 20.167969 64.359375 14.035156 Z M 51.246094 44.140625 C 51.53125 41.402344 51.679688 38.621094 51.6875 35.867188 C 51.679688 33.113281 51.53125 30.332031 51.246094 27.601562 L 51.15625 26.753906 L 51.992188 26.59375 C 55.8125 25.863281 59.527344 24.648438 63.035156 22.984375 L 63.894531 22.578125 L 64.28125 23.445312 C 66.039062 27.378906 66.929688 31.5625 66.929688 35.871094 C 66.929688 40.179688 66.039062 44.359375 64.28125 48.296875 L 63.894531 49.164062 L 63.039062 48.757812 C 59.527344 47.097656 55.808594 45.882812 51.996094 45.148438 L 51.15625 44.988281 Z M 10.941406 54.265625 L 10.265625 53.347656 L 11.304688 52.875 C 14.199219 51.550781 17.25 50.558594 20.371094 49.929688 L 21.304688 49.742188 L 21.46875 50.675781 C 22.246094 55.09375 23.632812 59.378906 25.582031 63.417969 L 26.625 65.570312 L 24.402344 64.679688 C 19.03125 62.53125 14.375 58.929688 10.941406 54.265625 Z M 24.40625 7.078125 L 26.640625 6.167969 L 25.589844 8.339844 C 23.632812 12.375 22.246094 16.660156 21.46875 21.074219 L 21.300781 22.007812 L 20.371094 21.820312 C 17.246094 21.1875 14.195312 20.195312 11.304688 18.867188 L 10.292969 18.40625 L 10.980469 17.414062 L 10.988281 17.402344 C 11.035156 17.328125 11.082031 17.253906 11.136719 17.183594 C 11.335938 16.921875 11.546875 16.671875 11.761719 16.421875 C 11.863281 16.304688 11.96875 16.183594 12.066406 16.0625 C 12.558594 15.472656 13.089844 14.847656 13.65625 14.261719 C 13.976562 13.925781 14.316406 13.617188 14.613281 13.34375 L 14.804688 13.167969 C 15.339844 12.667969 15.914062 12.140625 16.542969 11.65625 C 16.902344 11.363281 17.304688 11.074219 17.660156 10.816406 L 17.8125 10.707031 C 18.402344 10.28125 19.027344 9.867188 19.667969 9.46875 C 20.128906 9.1875 20.59375 8.914062 21.058594 8.660156 C 21.664062 8.34375 22.371094 7.976562 23.085938 7.65625 C 23.519531 7.457031 23.957031 7.257812 24.40625 7.078125 Z M 25.25 28.464844 L 25.335938 27.511719 L 26.289062 27.628906 C 29.460938 28.023438 32.691406 28.230469 35.886719 28.25 C 39.074219 28.234375 42.300781 28.023438 45.472656 27.628906 L 46.417969 27.511719 L 46.507812 28.464844 C 46.734375 30.878906 46.847656 33.375 46.847656 35.871094 C 46.847656 38.324219 46.734375 40.75 46.507812 43.28125 L 46.421875 44.226562 L 45.476562 44.117188 C 42.292969 43.746094 39.085938 43.5625 35.878906 43.5625 C 32.671875 43.5625 29.464844 43.746094 26.28125 44.117188 L 25.335938 44.226562 L 25.25 43.28125 C 25.023438 40.75 24.910156 38.324219 24.910156 35.871094 C 24.910156 33.410156 25.023438 30.988281 25.25 28.464844 Z M 44.746094 22.84375 C 38.886719 23.511719 32.871094 23.511719 27.011719 22.84375 L 26.015625 22.730469 L 26.207031 21.746094 C 28.171875 11.625 32.058594 4.824219 35.878906 4.824219 C 39.703125 4.824219 43.589844 11.625 45.550781 21.746094 L 45.742188 22.730469 Z M 27.011719 48.898438 C 32.894531 48.230469 38.863281 48.230469 44.746094 48.898438 L 45.742188 49.011719 L 45.550781 49.996094 C 43.585938 60.117188 39.699219 66.917969 35.878906 66.917969 C 32.054688 66.917969 28.167969 60.117188 26.207031 49.996094 L 26.015625 49.011719 Z M 45.132812 65.570312 L 46.175781 63.417969 C 48.128906 59.378906 49.511719 55.09375 50.292969 50.679688 L 50.457031 49.742188 L 51.386719 49.929688 C 54.503906 50.558594 57.554688 51.550781 60.457031 52.875 L 61.492188 53.347656 L 60.816406 54.265625 C 57.386719 58.929688 52.730469 62.53125 47.355469 64.683594 Z M 60.449219 18.871094 C 57.550781 20.195312 54.5 21.1875 51.378906 21.816406 L 50.449219 22.003906 L 50.285156 21.066406 C 49.507812 16.660156 48.128906 12.378906 46.179688 8.34375 L 45.144531 6.195312 L 47.355469 7.078125 L 47.359375 7.078125 C 47.800781 7.253906 48.230469 7.453125 48.664062 7.648438 C 49.425781 7.992188 50.097656 8.324219 50.71875 8.667969 C 51.171875 8.917969 51.621094 9.179688 52.066406 9.453125 C 52.722656 9.851562 53.367188 10.285156 53.988281 10.738281 C 54.429688 11.054688 54.824219 11.34375 55.21875 11.664062 C 55.757812 12.089844 56.324219 12.585938 57 13.21875 L 57.320312 13.515625 C 57.578125 13.757812 57.839844 14 58.09375 14.273438 C 58.664062 14.855469 59.199219 15.492188 59.746094 16.148438 L 60.015625 16.46875 C 60.210938 16.699219 60.410156 16.929688 60.59375 17.15625 C 60.660156 17.246094 60.710938 17.324219 60.761719 17.40625 L 61.484375 18.394531 Z M 20.511719 27.601562 C 19.925781 33.089844 19.925781 38.652344 20.511719 44.136719 L 20.601562 44.988281 L 19.765625 45.148438 C 15.945312 45.878906 12.230469 47.09375 8.722656 48.757812 L 7.867188 49.164062 L 7.480469 48.296875 C 5.722656 44.363281 4.832031 40.179688 4.832031 35.871094 C 4.832031 31.5625 5.722656 27.378906 7.480469 23.445312 L 7.863281 22.582031 L 8.722656 22.984375 C 12.234375 24.648438 15.949219 25.863281 19.765625 26.59375 L 20.601562 26.753906 Z M 20.511719 27.601562 "/></g></svg>